<?xml version="1.0" encoding="utf-8"?>
<!-- Generator: Adobe Illustrator 25.2.3, SVG Export Plug-In . SVG Version: 6.00 Build 0)  -->
<svg version="1.1" id="Layer_1" xmlns="http://www.w3.org/2000/svg" xmlns:xlink="http://www.w3.org/1999/xlink" x="0px" y="0px"
	 viewBox="0 0 612 792" style="enable-background:new 0 0 612 792;" xml:space="preserve">
<style type="text/css">
	.st0{fill:#C81D25;}
	.st1{fill:#AAADC4;stroke:#231F20;stroke-miterlimit:10;}
</style>
<polygon class="st0" points="479.2,388.4 229.6,54.8 229.6,711.3 "/>
<path class="st1" d="M479.2,388.4c-38.4-28.5-84.7-68.7-129.6-123.5c-63.9-78-99.7-155-120-210c42.3,11.6,123.4,39.8,200,110.9
	c91.5,84.9,124.6,182.7,136.3,225.4c-14.5,42.5-47.2,120.2-119.8,192.9c-82.4,82.5-172.5,114.8-216.5,127.4
	c5.2-39.7,26.2-159.2,127.8-250C401,422.4,445.9,400.7,479.2,388.4z"/>
<rect x="203.1" y="54.8" class="st1" width="26.5" height="656.5"/>
</svg>
